<svg width="84" height="115" viewBox="0 0 84 115" fill="none" xmlns="http://www.w3.org/2000/svg">
<g filter="url(#filter0_f_9_404)">
<path d="M32.825 86.4848L51.6292 86.5714L51.5461 105L32.7419 104.913L32.825 86.4848ZM10 40.4666C10.5594 28.3532 14.7839 19.7852 22.6733 14.7626C27.6518 11.5546 33.7589 9.9672 40.9945 10.0005C50.5017 10.0443 58.379 12.3762 64.6264 16.9963C70.9158 21.6165 74.0402 28.4329 73.9996 37.4453C73.9747 42.9717 72.5865 47.6204 69.8351 51.3913C68.2262 53.6796 65.142 56.5987 60.5826 60.1488L56.0866 63.6353C53.6381 65.5371 52.0084 67.7615 51.1976 70.3085C50.6856 71.9216 50.4008 74.4285 50.3434 77.8292L33.3061 77.7508C33.5909 70.5675 34.2863 65.6181 35.3923 62.9024C36.4985 60.1442 39.3313 56.9901 43.8907 53.44L48.5135 49.8265C50.0331 48.6857 51.2587 47.4372 52.1903 46.0811C53.8835 43.7507 54.7365 41.1827 54.7491 38.3769C54.7637 35.1461 53.8304 32.2084 51.9492 29.564C50.1103 26.8773 46.7089 25.5225 41.745 25.4997C36.8651 25.4772 33.3872 27.0979 31.3111 30.3618C29.2771 33.6258 28.2522 37.0221 28.2363 40.5505L10 40.4666Z" fill="#00D5E2"/>
</g>
<defs>
<filter id="filter0_f_9_404" x="0" y="0" width="84" height="115" filterUnits="userSpaceOnUse" color-interpolation-filters="sRGB">
<feFlood flood-opacity="0" result="BackgroundImageFix"/>
<feBlend mode="normal" in="SourceGraphic" in2="BackgroundImageFix" result="shape"/>
<feGaussianBlur stdDeviation="5" result="effect1_foregroundBlur_9_404"/>
</filter>
</defs>
</svg>
