<svg width="126" height="175" viewBox="0 0 126 175" fill="none" xmlns="http://www.w3.org/2000/svg">
<g filter="url(#filter0_f_9_403)">
<path d="M47.8039 134.791L78.9483 134.932L78.8107 165L47.6663 164.859L47.8039 134.791ZM10 59.7086C10.9266 39.9447 17.9233 25.9653 30.9901 17.7705C39.2358 12.5364 49.3506 9.94649 61.3346 10.0008C77.081 10.0722 90.1278 13.877 100.475 21.415C110.892 28.9533 116.067 40.0747 115.999 54.7791C115.958 63.796 113.659 71.3807 109.102 77.5332C106.437 81.2667 101.329 86.0295 93.7775 91.8217L86.331 97.5103C82.2756 100.613 79.5765 104.242 78.2336 108.398C77.3854 111.03 76.9138 115.12 76.8188 120.669L48.6007 120.541C49.0724 108.821 50.2241 100.745 52.056 96.3144C53.8881 91.8142 58.58 86.668 66.1315 80.8758L73.7879 74.9801C76.3048 73.1187 78.3347 71.0818 79.8777 68.8692C82.6821 65.067 84.0948 60.877 84.1157 56.2992C84.1399 51.0278 82.5941 46.2348 79.4784 41.9203C76.4328 37.5366 70.7991 35.3262 62.5776 35.2889C54.4954 35.2523 48.735 37.8966 45.2965 43.2218C41.9277 48.5474 40.2301 54.0887 40.2038 59.8456L10 59.7086Z" fill="#EA5D5D"/>
</g>
<defs>
<filter id="filter0_f_9_403" x="0" y="0" width="126" height="175" filterUnits="userSpaceOnUse" color-interpolation-filters="sRGB">
<feFlood flood-opacity="0" result="BackgroundImageFix"/>
<feBlend mode="normal" in="SourceGraphic" in2="BackgroundImageFix" result="shape"/>
<feGaussianBlur stdDeviation="5" result="effect1_foregroundBlur_9_403"/>
</filter>
</defs>
</svg>
