<svg width="67" height="89" viewBox="0 0 67 89" fill="none" xmlns="http://www.w3.org/2000/svg">
<g filter="url(#filter0_f_9_405)">
<path d="M26.7621 65.5521L40.5714 65.615L40.5104 79L26.7011 78.9371L26.7621 65.5521ZM10 32.1284C10.4108 23.3302 13.5131 17.1071 19.3069 13.4591C22.963 11.1291 27.4479 9.97618 32.7616 10.0004C39.7435 10.0322 45.5284 11.7259 50.1163 15.0815C54.7351 18.4373 57.0295 23.3881 56.9997 29.9339C56.9814 33.9479 55.962 37.3243 53.9414 40.0632C52.7598 41.7252 50.4949 43.8454 47.1466 46.4238L43.8449 48.9562C42.0467 50.3375 40.8499 51.9531 40.2545 53.803C39.8785 54.9746 39.6693 56.7954 39.6272 59.2654L27.1154 59.2084C27.3245 53.9911 27.8352 50.3963 28.6475 48.4238C29.4598 46.4205 31.5402 44.1296 34.8885 41.5512L38.2833 38.9266C39.3993 38.098 40.2993 37.1912 40.9835 36.2063C42.227 34.5137 42.8534 32.6485 42.8626 30.6106C42.8733 28.264 42.188 26.1303 40.8065 24.2097C39.456 22.2582 36.9581 21.2742 33.3127 21.2576C29.7291 21.2413 27.175 22.4185 25.6503 24.7891C24.1566 27.1598 23.4039 29.6266 23.3923 32.1893L10 32.1284Z" fill="#F9BA18"/>
</g>
<defs>
<filter id="filter0_f_9_405" x="0" y="0" width="67" height="89" filterUnits="userSpaceOnUse" color-interpolation-filters="sRGB">
<feFlood flood-opacity="0" result="BackgroundImageFix"/>
<feBlend mode="normal" in="SourceGraphic" in2="BackgroundImageFix" result="shape"/>
<feGaussianBlur stdDeviation="5" result="effect1_foregroundBlur_9_405"/>
</filter>
</defs>
</svg>
