<svg width="116" height="161" viewBox="0 0 116 161" fill="none" xmlns="http://www.w3.org/2000/svg">
<g filter="url(#filter0_f_9_402)">
<path d="M44.2375 123.52L72.4437 123.648L72.3191 151L44.1129 150.872L44.2375 123.52ZM10 55.2188C10.8391 37.24 17.1758 24.5233 29.0099 17.0686C36.4777 12.3073 45.6383 9.95132 56.4917 10.0008C70.7526 10.0657 82.5686 13.5268 91.9396 20.3839C101.374 27.2414 106.06 37.3583 105.999 50.7346C105.962 58.937 103.88 65.8366 99.7526 71.4335C97.3392 74.8297 92.713 79.1623 85.8739 84.4313L79.1299 89.6061C75.4571 92.4287 73.0126 95.7302 71.7965 99.5105C71.0283 101.905 70.6012 105.625 70.5151 110.673L44.9591 110.556C45.3863 99.8949 46.4294 92.5489 48.0884 88.5182C49.7478 84.4245 53.9969 79.7431 60.836 74.4741L67.7702 69.1109C70.0496 67.4177 71.888 65.5647 73.2854 63.552C75.8253 60.0932 77.1047 56.2817 77.1237 52.1173C77.1455 47.3221 75.7456 42.962 72.9239 39.0371C70.1655 35.0495 65.0634 33.0387 57.6174 33.0047C50.2977 32.9714 45.0808 35.3769 41.9667 40.2212C38.9157 45.0657 37.3782 50.1065 37.3544 55.3434L10 55.2188Z" fill="#2FC18C"/>
</g>
<defs>
<filter id="filter0_f_9_402" x="0" y="0" width="116" height="161" filterUnits="userSpaceOnUse" color-interpolation-filters="sRGB">
<feFlood flood-opacity="0" result="BackgroundImageFix"/>
<feBlend mode="normal" in="SourceGraphic" in2="BackgroundImageFix" result="shape"/>
<feGaussianBlur stdDeviation="5" result="effect1_foregroundBlur_9_402"/>
</filter>
</defs>
</svg>
